<svg width="99" height="99" viewBox="0 0 99 99" fill="none" xmlns="http://www.w3.org/2000/svg">
<path d="M78.2719 74.5078C72.9333 80.6489 65.7712 84.9224 57.8316 86.7044C49.8919 88.4864 41.5905 87.6835 34.1396 84.413C26.6886 81.1417 20.4787 75.574 16.4165 68.523C12.3544 61.472 10.6528 53.307 11.5603 45.2203C12.4672 37.1329 15.936 29.5473 21.4601 23.5713C26.9843 17.5954 34.2745 13.5422 42.2658 12.0038M56.7188 12.0347C62.0852 13.0682 67.167 15.2424 71.6203 18.4102C76.0736 21.5781 79.7944 25.6656 82.531 30.3961C85.2678 35.1267 86.9564 40.39 87.4826 45.8299C88.0088 51.2697 87.3603 56.7591 85.5809 61.9266" stroke="black" stroke-width="6.1875" stroke-linecap="round"/>
<path d="M41.25 47.4375V40.0641C41.25 35.5931 44.9434 31.9688 49.5 31.9688C54.0566 31.9688 57.75 35.5931 57.75 40.0641V47.4375M39.1875 47.4375H59.8125C62.0978 47.4375 63.9375 49.2772 63.9375 51.5625V62.9062C63.9375 65.1915 62.0978 67.0312 59.8125 67.0312H39.1875C36.9022 67.0312 35.0625 65.1915 35.0625 62.9062V51.5625C35.0625 49.2772 36.9022 47.4375 39.1875 47.4375Z" stroke="black" stroke-width="6.1875"/>
</svg>
