<svg width="204" height="397" viewBox="0 0 204 397" fill="none" xmlns="http://www.w3.org/2000/svg">
<path d="M56.9345 32C57.7345 27.6 56.6667 5.33333 56 0.5C66 13.3 88.1011 27 97.9345 30.5V34C92.7345 32.4 68.4345 34.6667 56.9345 32Z" fill="#FFE2D4"/>
<path d="M97.9345 3.50001V34L69.9345 32.5C63.5345 28.1 55.5 7.5 56 0C58.5 3.50001 84.7678 -3.49999 97.9345 3.50001Z" fill="#F3A09F"/>
<path d="M54.4345 23.5L102.934 35.5C104.534 35.8959 104.601 37.665 104.434 38.5V49.5L138.434 68L148.934 172.5L138.434 186.5H50.4345L32.9345 170L27.9345 155L9.43448 61L47.9345 42L50.4345 25C50.8345 22.2 53.2678 22.8334 54.4345 23.5Z" fill="#6C80A3"/>
<path d="M95.4345 48.5V34.5" stroke="#4F6384" stroke-linecap="round"/>
<path d="M83.4345 46V31.5" stroke="#4F6384" stroke-linecap="round"/>
<path d="M71.4345 44.5V28.5" stroke="#4F6384" stroke-linecap="round"/>
<path d="M59.9345 41.5V26" stroke="#4F6384" stroke-linecap="round"/>
<path d="M77.9345 57C70.4345 54.5 53.9345 48 47.9345 42" stroke="#4F6384" stroke-linecap="round"/>
<path d="M94.9345 57C97.4345 55.8334 102.834 52.7 104.434 49.5" stroke="#506485" stroke-linecap="round"/>
<path d="M126.934 60C128.934 60.4 135.768 64.5 138.934 66.5L148.934 95L156.434 107.5C162.834 117.9 161.768 128.833 160.434 133L154.934 159.5L158.434 218C189.634 266.8 201.434 342.333 203.434 374C125.434 415.6 37.9345 391.333 3.93448 374C-0.865524 372.4 -0.0655212 366.667 0.934479 364L45.9345 227.5L29.4345 175.5C42.4345 163 49.9345 102 50.4345 100.5C50.8345 99.3 51.9345 98 52.4345 97.5L30.4345 51C29.6345 49.4 30.7678 48.6667 31.4345 48.5L38.9345 45C40.9345 44.6 41.7678 45.8333 41.9345 46.5L65.9345 97.5H136.934C132.434 85.1667 123.534 60.4 123.934 60C124.334 59.6 126.101 59.8333 126.934 60Z" fill="#323641"/>
<path d="M148.934 288.5C140.768 301.333 122.934 328.3 116.934 333.5" stroke="#1F1F1F" stroke-linecap="round"/>
<path d="M126.934 298C121.934 317.833 109.834 361.1 101.434 375.5" stroke="#1F1F1F" stroke-linecap="round"/>
</svg>
