<svg width="70" height="21" viewBox="0 0 70 21" fill="none" xmlns="http://www.w3.org/2000/svg">
<path d="M13.3926 2.55478C21.7926 1.35478 26.226 9.38811 27.3926 13.5548C26.5926 2.35478 17.3926 -0.445221 13.3926 0.0547753C4.99264 1.25478 1.22597 4.55478 0.392639 6.05478C1.19264 6.85478 1.89264 8.05478 4.39264 8.55478C5.99264 3.75478 11.0615 2.8878 13.3926 2.55478Z" fill="#432323"/>
<path d="M18.3926 18.0548C15.3926 17.7214 8.69264 16.5548 5.89264 14.5548C7.39264 17.0548 10.8926 18.5548 18.3926 18.0548Z" fill="#432323"/>
<path d="M55.8926 19.5548C57.5593 19.8881 61.3926 20.2548 63.3926 19.0548C62.3926 19.8881 59.4926 21.1548 55.8926 19.5548Z" fill="#432323"/>
<path d="M62.3926 8.05478C57.9926 6.85478 55.226 12.8881 54.3926 16.0548C55.5927 7.65479 60.226 5.88812 62.3926 6.05478C66.3927 6.05478 69.0593 9.38812 69.8926 11.0548C70.2926 11.8548 67.726 14.7215 66.3926 16.0548C67.5926 10.0548 64.226 8.22145 62.3926 8.05478Z" fill="#432323"/>
</svg>
