<svg width="102" height="96" viewBox="0 0 102 96" fill="none" xmlns="http://www.w3.org/2000/svg">
<path d="M6.10079 35.6643C14.9008 35.2643 20.1008 49.4976 21.6008 56.6643C24.0008 44.2643 19.2675 38.1643 16.6008 36.6643C26.6008 31.4643 36.4341 14.1643 40.1008 6.16426C40.9008 10.1643 32.4341 24.1643 28.1008 30.6643C45.3008 33.8643 61.2675 24.6643 67.1008 19.6643C67.5008 23.6643 62.6008 31.3309 60.1008 34.6643C71.7008 37.8643 83.6008 20.9976 88.1008 12.1643C88.1008 16.1643 83.4341 30.1643 81.1008 36.6643C92.3008 33.4643 97.1008 10.9976 98.1008 0.16426C104.501 18.5643 98.7675 53.1643 95.1008 68.1643C88.3008 84.5643 73.6008 92.6643 67.1008 94.6643C41.9008 92.2643 22.9341 74.9976 16.6008 66.6643C5.40079 62.6643 1.26746 52.3309 0.600792 47.6643C-0.199211 38.8643 3.93413 35.9976 6.10079 35.6643Z" fill="#FFE2D4" stroke="#FFE2D4"/>
</svg>
