<svg width="94" height="149" viewBox="0 0 94 149" fill="none" xmlns="http://www.w3.org/2000/svg">
<path d="M19.5349 73.6592C12.0974 93.4957 4.85715 109.655 4.62284 119.853L38.1042 132.947L81.8758 83.2304C84.074 81.4505 85.7745 76.4342 86.35 74.1485C88.8819 61.5441 87.4546 46.1103 86.4244 39.9689C85.8379 37.8962 86.2319 35.4238 86.5023 34.4467L88.36 31.1228C90.6418 28.5473 88.4379 25.6006 87.0507 24.4493L68.7811 6.94294C67.399 4.7866 65.588 5.43412 64.8553 6.02742L58.8893 14.9525C57.4868 16.8161 56.0719 17.8404 55.5398 18.1196C48.4006 20.9889 40.4574 26.0862 37.3782 28.2762C34.7404 30.4121 33.1042 33.8599 32.6159 35.3169C28.0318 44.4878 21.9852 64.6997 19.5349 73.6592Z" fill="#6C80A3"/>
<path d="M23.5532 62.9178C21.4426 67.613 12.9246 91.4183 10.9832 98.1065" stroke="#495D7E" stroke-linecap="round"/>
<path d="M85.7436 36.8808C79.2874 31.342 65.1343 19.6312 60.172 17.0984" stroke="#495D7E" stroke-linecap="round"/>
<circle cx="23.4653" cy="121.17" r="19" transform="rotate(13.6158 23.4653 121.17)" fill="#6C80A3"/>
</svg>
