<svg width="160" height="142" viewBox="0 0 160 142" fill="none" xmlns="http://www.w3.org/2000/svg">
<path d="M14.9345 109C32.5345 111.4 37.6011 131.667 37.9345 141.5C39.9345 140.3 41.1011 136.667 41.4345 135H48.4345C49.2345 129.8 48.1011 120.167 47.4345 116C35.4345 111.6 31.7678 100.833 31.4345 96C31.0345 88 34.9345 85.3333 36.9345 85C44.9345 84.2 50.6011 98.6667 52.4345 106C54.8345 93.6 50.1011 87.5 47.4345 86C57.4345 80.4 67.2678 63.3333 70.9345 55.5C71.3345 60.3 63.1011 73.8333 58.9345 80C76.5345 83.2 92.2678 74 97.9345 69C97.9345 73.8 93.2678 81 90.9345 84C102.134 87.6 114.268 70.5 118.934 61.5C118.134 68.3 113.934 80.6667 111.934 86C122.334 84.4 127.601 61 128.934 49.5C132.134 55.5 131.934 79.6667 131.434 91C133.434 89.8 135.934 86.5 136.934 85C136.934 88.2 134.934 93.6667 133.934 96C146.734 94.4 150.601 79.3333 150.934 72C152.534 74 152.934 81.5 152.934 85C173.334 57 138.101 22.6667 117.934 9C112.334 4.2 102.268 4.33334 97.9345 5C21.5345 -17.8 1.43448 46.1667 0.934479 81C2.13448 79 3.43448 78.5 3.93448 78.5C5.53448 92.9 10.6012 105.5 12.9345 110L13.9345 107.5L14.9345 109Z" fill="#804C4C"/>
<path d="M98.0898 69.1959C97.9816 69.2817 97.8244 69.2635 97.7386 69.1553C97.6528 69.0472 97.671 68.8899 97.7791 68.8041L97.9345 69L98.0898 69.1959ZM97.9345 69L97.7791 68.8041C100.182 66.898 103.944 63.4107 107.403 59.1548C110.864 54.8957 114.004 49.8885 115.191 44.9417L115.434 45L115.678 45.0583C114.465 50.1115 111.271 55.1877 107.791 59.4702C104.308 63.756 100.52 67.2686 98.0898 69.1959L97.9345 69Z" fill="#593C3C"/>
<path d="M66.5482 79.7227C66.4252 79.7854 66.2746 79.7367 66.2118 79.6137C66.149 79.4907 66.1978 79.3401 66.3208 79.2773L66.4345 79.5L66.5482 79.7227ZM66.4345 79.5L66.3208 79.2773C70.2177 77.2874 76.4237 73.3004 82.3522 67.8165C88.282 62.3313 93.9171 55.3642 96.6985 47.4174L96.9345 47.5L97.1704 47.5826C94.3518 55.6358 88.6536 62.6687 82.6917 68.1835C76.7286 73.6996 70.4846 77.7126 66.5482 79.7227L66.4345 79.5Z" fill="#593C3C"/>
<path d="M45.1757 83.5658C45.1393 83.699 45.0019 83.7775 44.8687 83.7412C44.7355 83.7049 44.6569 83.5674 44.6933 83.4342L44.9345 83.5L45.1757 83.5658ZM44.9345 83.5L44.6933 83.4342C45.6898 79.7804 47.3791 70.6884 46.1879 63.5411L46.4345 63.5L46.6811 63.4589C47.8899 70.7116 46.1792 79.8863 45.1757 83.5658L44.9345 83.5Z" fill="#593C3C"/>
<path d="M137.636 84.6486C137.553 84.7596 137.397 84.7831 137.286 84.701C137.175 84.619 137.151 84.4624 137.233 84.3514L137.434 84.5L137.636 84.6486ZM137.434 84.5L137.233 84.3514C140.031 80.5667 145.177 69.2646 143.187 54.5335L143.434 54.5L143.682 54.4665C145.692 69.3354 140.505 80.7666 137.636 84.6486L137.434 84.5Z" fill="#593C3C"/>
<path d="M46.6507 84.1255C46.5813 84.2449 46.4283 84.2855 46.3089 84.2162C46.1895 84.1469 46.149 83.9939 46.2183 83.8745L46.4345 84L46.6507 84.1255ZM46.4345 84L46.2183 83.8745C49.2096 78.7227 55.2866 65.4317 55.6846 53.4917L55.9345 53.5L56.1843 53.5083C55.7823 65.5683 49.6593 78.9439 46.6507 84.1255L46.4345 84Z" fill="#593C3C"/>
<path d="M41.4345 135C41.4345 137.4 38.9345 141 37.9345 141.5C36.9345 119.5 22.6011 110.5 14.9345 109C18.9345 104.6 28.4345 101.667 32.4345 100.5C35.4345 110 43.4345 114.5 47.4345 116C48.4345 120 48.7678 130.167 48.4345 135H41.4345Z" fill="#774343"/>
</svg>
