<svg width="72" height="65" viewBox="0 0 72 65" fill="none" xmlns="http://www.w3.org/2000/svg">
<path d="M4.30894 21.9498L1.51124 43.7769C2.06155 49.7002 5.6954 60.4056 15.8283 55.8401C25.9613 51.2746 33.2921 45.9453 35.6908 43.8513C43.3746 43.4526 50.9134 40.927 53.7223 39.7141C54.0987 36.1338 49.046 36.3735 46.4725 36.9408C39.061 38.5748 35.5506 38.809 34.7219 38.7219L34.8787 37.2301C37.0769 35.4502 50.3972 28.3038 56.7825 24.9532C56.447 20.4936 51.4084 21.8743 48.931 23.1221C47.2143 24.1482 38.0443 27.843 33.6739 29.5621L52.3584 14.4329C50.7039 11.0413 46.6616 12.8284 44.8472 14.1459C42.2512 15.884 33.0884 20.7861 28.8315 23.0198C29.7526 21.9101 40.5198 10.6744 45.7883 5.19523C40.9096 1.86684 37.2477 5.13519 36.0267 7.18541C25.9365 18.9951 17.604 23.0125 14.6991 23.545C14.029 22.2679 14.6987 20.3608 15.1174 19.5669C16.4363 18.499 17.8124 14.6551 18.3356 12.8667C19.319 7.33921 16.4419 6.96966 14.8804 7.47583C15.4669 9.54852 8.07712 17.9887 4.30894 21.9498Z" fill="#FFE2D4"/>
<path d="M11.6388 38.3059C12.9908 36.6046 15.5742 31.48 15.0918 24.5918" stroke="#DDB2A9" stroke-width="0.5" stroke-linecap="round"/>
<path d="M21.8454 36.8652C21.9411 34.3615 21.0331 28.3335 16.6358 24.2513" stroke="#DDB2A9" stroke-width="0.5" stroke-linecap="round"/>
<path d="M33.4392 36.576C33.0725 33.6885 30.7424 26.8406 24.3561 22.5493" stroke="#DDB2A9" stroke-width="0.5" stroke-linecap="round"/>
<path d="M57.5792 41.4672C56.7221 45.6181 51.8433 54.1977 39.1854 55.309" stroke="black"/>
<path d="M62.8836 40.2792C61.5979 46.5055 54.9564 59.1341 38.6756 59.8376" stroke="black"/>
</svg>
