<svg width="65" height="67" viewBox="0 0 65 67" fill="none" xmlns="http://www.w3.org/2000/svg">
<path d="M12.0529 32.6179L11.5529 54.6179C12.7196 60.4513 17.4529 70.7179 27.0529 65.1179C36.6529 59.5179 43.3862 53.4513 45.5529 51.1179C53.1529 49.9179 60.3862 46.6179 63.0529 45.1179C63.0529 41.5179 58.0529 42.2846 55.5529 43.1179C48.3529 45.5179 44.8862 46.1179 44.0529 46.1179L44.0529 44.6179C46.0529 42.6179 58.5529 34.1179 64.5529 30.1179C63.7529 25.7179 58.8862 27.6179 56.5529 29.1179C54.9529 30.3179 46.2196 34.9513 42.0529 37.1179L59.0529 20.1179C57.0529 16.9179 53.2196 19.1179 51.5529 20.6179C49.1529 22.6179 40.5529 28.4513 36.5529 31.1179C37.3529 29.9179 46.8862 17.6179 51.5529 11.6179C46.3529 8.81794 43.0529 12.4513 42.0529 14.6179C33.2529 27.4179 25.3862 32.2846 22.5529 33.1179C21.7529 31.9179 22.2196 29.9513 22.5529 29.1179C23.7529 27.9179 24.7196 23.9513 25.0529 22.1179C25.4529 16.5179 22.5529 16.4513 21.0529 17.1179C21.8529 19.1179 15.3862 28.2846 12.0529 32.6179Z" fill="#FFE2D4"/>
<path d="M21.0529 48.1179C22.2196 46.2846 24.2529 40.9179 23.0529 34.1179" stroke="#DDB2A9" stroke-width="0.5" stroke-linecap="round"/>
<path d="M31.0529 45.6179C30.8862 43.1179 29.3529 37.2179 24.5529 33.6179" stroke="#DDB2A9" stroke-width="0.5" stroke-linecap="round"/>
<path d="M42.5529 44.1179C41.8862 41.2846 38.8529 34.7179 32.0529 31.1179" stroke="#DDB2A9" stroke-width="0.5" stroke-linecap="round"/>
<path d="M10.4354 24.0295C10.428 19.7911 13.4547 10.3969 25.6201 6.72779" stroke="black"/>
<path d="M5.48467 26.2743C5.47367 19.9166 9.4005 6.19901 25.1958 2.19044" stroke="black"/>
</svg>
