<svg width="193" height="332" viewBox="0 0 193 332" fill="none" xmlns="http://www.w3.org/2000/svg">
<path d="M90.5548 310.038C91.3577 307.848 91.1827 305.336 90.9949 304.354L89.3552 301.104L85.1875 295.283L75.4595 297.653L70.7444 310.263C72.3739 312.395 70.4806 322.192 69.3302 326.824C70.584 326.991 71.4896 326.58 71.7857 326.354C74.9459 323.713 76.5249 314.757 76.9194 310.609C78.156 312.816 79.2989 323.051 79.7158 327.892C81.2873 327.591 82.4745 326.346 82.8717 325.761C84.5355 323.814 83.4826 319.196 82.7482 317.131L86.041 310.392C87.2024 312.206 88.153 319.66 88.4831 323.161C93.4402 321.398 91.9297 313.678 90.5548 310.038Z" fill="#EEA19B"/>
<path d="M68.144 304.652C71.506 296.678 81.0414 286.913 85.3888 283.027C93.4029 282.343 109.086 282.364 107.706 287.922C106.325 293.481 102.692 297.196 101.048 298.359C99.0832 298.734 93.4504 303.884 90.8795 306.412C87.6082 310.601 85.1312 313.62 82.9146 320.662C79.3379 316.867 81.1685 310.645 82.5308 308.009C85.3153 303.404 85.3083 300.351 84.9568 299.4C79.5488 298.805 71.9047 308.345 68.7586 313.188C62.9814 319.18 57.8247 319.013 55.9686 318.18C63.0747 312.748 67.0464 306.898 68.144 304.652Z" fill="#FFE2D4"/>
<path d="M116.472 3.71564L142.866 48.5558L139.648 92.9506L132.633 157.416L136.707 255.904C135.552 262.641 125.774 273.267 121.03 277.738C119.291 279.292 118.423 284.515 118.207 286.932C118.247 291.404 114.733 291.838 112.971 291.497L84.2912 285.274C80.8476 284.303 81.248 281.783 81.8786 280.644L82.9038 275.358C83.7818 273.561 82.6434 271.335 81.9645 270.447L71.2166 254.176C68.6511 251.409 68.9579 246.802 69.432 244.845L87.0469 155.954L97.8186 17.9737C99.2505 6.29677 110.851 3.60295 116.472 3.71564Z" fill="#6C80A3"/>
<path d="M139.742 93.4417C140.726 85.2782 142.364 66.1635 141.046 55.0126" stroke="#495D7E"/>
<path d="M118.762 279.19C109.717 278.035 90.3974 275.146 85.4746 272.83" stroke="#495D7E"/>
</svg>
