<svg width="57" height="43" viewBox="0 0 57 43" fill="none" xmlns="http://www.w3.org/2000/svg">
<path d="M21.251 27.5C20.051 25.5 19.751 23 19.751 22L20.751 18.5L23.751 12L33.751 12.5L40.751 24C39.551 26.4 43.251 35.6667 45.251 40C44.051 40.4 43.0844 40.1667 42.751 40C39.151 38 35.9177 29.5 34.751 25.5C33.951 27.9 34.751 38.1667 35.251 43C33.651 43 32.251 42 31.751 41.5C29.751 39.9 29.9177 35.1667 30.251 33L25.751 27C24.951 29 25.4177 36.5 25.751 40C20.551 39.2 20.5844 31.3333 21.251 27.5Z" fill="#EEA19B"/>
<path d="M42.251 18C37.451 10.8 26.251 3 21.251 0C13.251 0.833333 -2.14897 3.8 0.25103 9C2.65103 14.2 6.9177 17.1667 8.75103 18C10.751 18 17.251 22 20.251 24C24.251 27.5 27.251 30 30.751 36.5C33.551 32.1 30.5844 26.3333 28.751 24C25.151 20 24.5844 17 24.751 16C29.951 14.4 39.251 22.3333 43.251 26.5C50.051 31.3 55.0844 30.1667 56.751 29C48.751 25 43.751 20 42.251 18Z" fill="#FFE2D4"/>
</svg>
