<svg width="91" height="396" viewBox="0 0 91 396" fill="none" xmlns="http://www.w3.org/2000/svg">
<path d="M21.4345 107L13.4345 15.5L90.4345 0.5L69.9345 112.5C84.3345 162.1 69.9345 228.5 60.9345 255.5L47.9345 279.5H32.9345L27.9345 253.5C34.7345 197.1 26.4345 132.333 21.4345 107Z" fill="#FFE2D4"/>
<path d="M83.6345 38C58.8345 46.4 28.2845 48.1667 16.2845 48C14.7845 33 13.9345 19 12.9345 14.5L89.9345 4.5L83.6345 38Z" fill="#F2A19E"/>
<path d="M28.9345 254.5C36.5345 257.7 53.4345 256.5 60.9345 255.5C63.7345 256.3 62.7678 260.833 61.9345 263L46.9345 316C49.3345 320.8 47.6012 325 46.4345 326.5V348.5L45.4345 350.5L38.4345 352L16.9345 352.5L13.4345 346C13.4345 342.4 16.1012 332.833 17.4345 328.5C16.6345 323.7 18.4345 318.833 19.4345 317L19.9345 314.5C17.1345 311.7 19.4345 309 20.9345 308L26.9345 257C27.3345 254.2 28.4345 254.167 28.9345 254.5Z" fill="#6C80A3"/>
<path d="M31.9345 278.5L34.4345 259.5" stroke="#4B5F80" stroke-linecap="round"/>
<path d="M27.4345 277.5L28.4345 258.5" stroke="#4B5F80" stroke-linecap="round"/>
<path d="M37.9345 280L40.4345 261" stroke="#4B5F80" stroke-linecap="round"/>
<path d="M43.4345 280L46.4345 261" stroke="#4B5F80" stroke-linecap="round"/>
<path d="M49.4345 279.5L53.4345 260.5" stroke="#4B5F80" stroke-linecap="round"/>
<path d="M55.4345 279.5L59.9345 260" stroke="#4B5F80" stroke-linecap="round"/>
<path d="M13.4345 346.5C27.8345 335.7 41.4345 343.667 46.4345 349C47.6345 349 48.2678 352 48.4345 353.5L49.9345 371C51.1345 380.6 50.4345 388 49.9345 390.5C23.5345 399.7 6.26781 393.667 0.934479 389.5C0.13448 383.5 6.60115 363 9.93448 353.5C10.3345 350.3 12.4345 347.5 13.4345 346.5Z" fill="#413736" stroke="#413736"/>
<path d="M48.9345 382C39.1011 384.167 16.4345 386.9 4.43448 380.5" stroke="#33282D"/>
</svg>
