<svg width="181" height="380" viewBox="0 0 181 380" fill="none" xmlns="http://www.w3.org/2000/svg">
<path d="M147.528 79.0483L177.584 13.0736L103.094 0.510726L102.051 52.0099C102.048 55.6099 101.046 57.509 100.546 58.0086C64.5166 92.3782 51.8221 125.301 49.9785 137.466L37.9156 211.956L42.9076 221.46L52.8974 233.468L70.4076 221.483C100.864 154.309 134.511 98.5373 147.528 79.0483Z" fill="#FFE2D4"/>
<path d="M102.568 31.5103C118.963 37.5241 150.726 41.3843 164.559 42.0626L174.077 20.5707L180.083 14.0757L173.584 12.5703L102.592 3.0103L102.568 31.5103Z" fill="#F2A19E"/>
<path d="M38.419 207.956C49.6112 217.166 64.4076 221.478 70.4067 222.483C72.8054 224.085 72.0695 227.151 71.4017 228.484L57.8692 266.973C58.2678 268.573 58.0316 271.973 57.8637 273.473C57.4627 274.672 55.6949 275.971 54.8611 276.47C56.0601 277.671 56.0223 282.971 55.8535 285.471C55.0522 287.07 52.8504 289.135 51.8497 289.968L52.343 297.968L47.8371 304.964L47.3181 327.464L48.3164 329.465L43.8105 336.461L29.3016 346.949L15.8079 339.437L14.8527 286.436L20.8586 279.441C20.8613 276.241 21.1962 274.442 21.3633 273.942C21.3639 273.142 23.3655 271.277 24.3662 270.444L24.3704 265.444C24.3714 264.244 26.0395 262.612 26.8734 261.946L35.916 211.454C35.5187 208.254 37.4191 207.789 38.419 207.956Z" fill="#6C80A3"/>
<path d="M59.8835 249.974L67.4033 226.481" stroke="#4B5F80" stroke-linecap="round"/>
<path d="M53.3848 248.469L60.4055 223.975" stroke="#4B5F80" stroke-linecap="round"/>
<path d="M46.8873 245.463L52.9076 221.468" stroke="#4B5F80" stroke-linecap="round"/>
<path d="M40.389 243.458L45.9105 217.963" stroke="#4B5F80" stroke-linecap="round"/>
<path d="M33.8911 240.952L38.9126 215.457" stroke="#4B5F80" stroke-linecap="round"/>
<path d="M19.3329 309.94C19.3521 287.14 16.6883 283.771 15.354 284.937L8.84762 292.431C7.24594 294.43 4.84523 295.261 3.84509 295.427C0.244756 295.824 0.342418 298.591 0.841292 299.924C6.01798 327.529 12.6286 354.434 15.2868 364.437C29.6726 381.249 52.9405 379.802 62.7763 376.977C64.783 368.978 63.287 364.311 62.2881 362.976L53.8016 346.969C51.4124 334.167 49.8176 327.966 49.3189 326.465C37.3236 320.855 27.9859 326.114 24.8164 329.445C24.813 333.445 24.143 337.444 23.8084 338.944C23.0074 340.143 21.8091 338.109 21.3101 336.942C17.3165 329.338 16.987 324.771 17.3215 323.438C18.5245 319.839 19.1637 312.94 19.3329 309.94Z" fill="#413736" stroke="#413736"/>
<path d="M60.7822 369.975C51.6146 370.967 31.2819 370.25 23.291 359.443C19.9642 351.774 13.0134 332.935 11.8252 318.934" stroke="#413736"/>
</svg>
