<svg width="77" height="32" viewBox="0 0 77 32" fill="none" xmlns="http://www.w3.org/2000/svg">
<path d="M59.735 13.699L62.0322 15.929" stroke="#A58077" stroke-width="0.3" stroke-linecap="round"/>
<path d="M62.2235 13.9381L64.5208 16.1681" stroke="#A58077" stroke-width="0.3" stroke-linecap="round"/>
<g filter="url(#filter0_df_34_54)">
<ellipse cx="4.19354" cy="2.11628" rx="4.19354" ry="2.11628" transform="matrix(-0.991622 -0.129176 -0.129176 0.991622 66.4295 13.4007)" fill="#FFBEBE"/>
</g>
<path d="M10.4565 12.3036L12.9565 14.3036" stroke="#A58077" stroke-width="0.3" stroke-linecap="round"/>
<path d="M12.9565 12.3036L15.4565 14.3036" stroke="#A58077" stroke-width="0.3" stroke-linecap="round"/>
<path d="M15.9565 12.3036L18.4565 14.3036" stroke="#A58077" stroke-width="0.3" stroke-linecap="round"/>
<g filter="url(#filter1_df_34_54)">
<ellipse cx="5" cy="3.5" rx="5" ry="3.5" transform="matrix(-0.987591 -0.157051 -0.157051 0.987591 20.4565 10.8741)" fill="#FFB2B2"/>
</g>
<path d="M49.4565 20.8036C48.9565 20.6369 47.6565 20.4036 46.4565 20.8036" stroke="#A58077" stroke-width="0.5" stroke-linecap="round"/>
<path d="M48.4565 31.3036C45.4565 31.3036 38.8565 31.1036 36.4565 30.3036" stroke="#A58077" stroke-width="0.3" stroke-linecap="round"/>
<path d="M55.9565 18.3036C55.9565 17.1036 53.1232 13.8036 51.9565 12.3036C53.9565 16.7036 52.9565 20.8036 51.9565 22.3036C53.5565 21.1036 55.6232 18.9703 55.9565 18.3036Z" fill="#E7B0AB"/>
<path d="M51.9565 11.3036C52.4565 12.9703 53.4565 16.8036 53.4565 18.8036C53.4565 19.6369 53.1565 21.5036 51.9565 22.3036" stroke="#A58077" stroke-width="0.5" stroke-linecap="round"/>
<defs>
<filter id="filter0_df_34_54" x="47.8302" y="2.78965" width="28.3351" height="24.3357" filterUnits="userSpaceOnUse" color-interpolation-filters="sRGB">
<feFlood flood-opacity="0" result="BackgroundImageFix"/>
<feColorMatrix in="SourceAlpha" type="matrix" values="0 0 0 0 0 0 0 0 0 0 0 0 0 0 0 0 0 0 127 0" result="hardAlpha"/>
<feOffset/>
<feGaussianBlur stdDeviation="0.5"/>
<feComposite in2="hardAlpha" operator="out"/>
<feColorMatrix type="matrix" values="0 0 0 0 0 0 0 0 0 0 0 0 0 0 0 0 0 0 0.25 0"/>
<feBlend mode="normal" in2="BackgroundImageFix" result="effect1_dropShadow_34_54"/>
<feBlend mode="normal" in="SourceGraphic" in2="effect1_dropShadow_34_54" result="shape"/>
<feGaussianBlur stdDeviation="5" result="effect2_foregroundBlur_34_54"/>
</filter>
<filter id="filter1_df_34_54" x="0" y="0" width="29.9378" height="27.0908" filterUnits="userSpaceOnUse" color-interpolation-filters="sRGB">
<feFlood flood-opacity="0" result="BackgroundImageFix"/>
<feColorMatrix in="SourceAlpha" type="matrix" values="0 0 0 0 0 0 0 0 0 0 0 0 0 0 0 0 0 0 127 0" result="hardAlpha"/>
<feOffset/>
<feGaussianBlur stdDeviation="0.5"/>
<feComposite in2="hardAlpha" operator="out"/>
<feColorMatrix type="matrix" values="0 0 0 0 0 0 0 0 0 0 0 0 0 0 0 0 0 0 0.25 0"/>
<feBlend mode="normal" in2="BackgroundImageFix" result="effect1_dropShadow_34_54"/>
<feBlend mode="normal" in="SourceGraphic" in2="effect1_dropShadow_34_54" result="shape"/>
<feGaussianBlur stdDeviation="5" result="effect2_foregroundBlur_34_54"/>
</filter>
</defs>
</svg>
